<svg width="25" height="25" viewBox="0 0 25 25" fill="none" xmlns="http://www.w3.org/2000/svg">
<g id="Add User">
<g id="Iconly/Bold/Add-User">
<g id="Add-User">
<path id="Vector" d="M10 15.2403C14.0668 15.2403 17.5 15.9095 17.5 18.4938C17.5 21.0782 14.0448 21.7251 10 21.7251C5.9332 21.7251 2.5 21.0549 2.5 18.4715C2.5 15.8871 5.95422 15.2403 10 15.2403ZM19.499 7.7251C19.9952 7.7251 20.3979 8.13454 20.3979 8.63671V9.81296H21.601C22.0962 9.81296 22.5 10.2224 22.5 10.7246C22.5 11.2267 22.0962 11.6362 21.601 11.6362H20.3979V12.8135C20.3979 13.3157 19.9952 13.7251 19.499 13.7251C19.0038 13.7251 18.6 13.3157 18.6 12.8135V11.6362H17.399C16.9027 11.6362 16.5 11.2267 16.5 10.7246C16.5 10.2224 16.9027 9.81296 17.399 9.81296H18.6V8.63671C18.6 8.13454 19.0038 7.7251 19.499 7.7251ZM10 2.7251C12.7546 2.7251 14.9626 4.96173 14.9626 7.75194C14.9626 10.5422 12.7546 12.7788 10 12.7788C7.24543 12.7788 5.03737 10.5422 5.03737 7.75194C5.03737 4.96173 7.24543 2.7251 10 2.7251Z" fill="white"/>
</g>
</g>
</g>
</svg>
