<svg width="25" height="25" viewBox="0 0 25 25" fill="none" xmlns="http://www.w3.org/2000/svg">
<g id="Category">
<g id="Iconly/Bold/Category">
<g id="Category_2">
<path id="Vector" d="M8.54891 13.9519C9.95891 13.9519 11.0889 15.0929 11.0889 16.5129V19.9219C11.0889 21.3319 9.95891 22.4819 8.54891 22.4819H5.16891C3.76891 22.4819 2.62891 21.3319 2.62891 19.9219V16.5129C2.62891 15.0929 3.76891 13.9519 5.16891 13.9519H8.54891ZM20.089 13.9519C21.489 13.9519 22.629 15.0929 22.629 16.5129V19.9219C22.629 21.3319 21.489 22.4819 20.089 22.4819H16.709C15.299 22.4819 14.169 21.3319 14.169 19.9219V16.5129C14.169 15.0929 15.299 13.9519 16.709 13.9519H20.089ZM8.54891 2.48218C9.95891 2.48218 11.0889 3.63218 11.0889 5.04318V8.45218C11.0889 9.87218 9.95891 11.0122 8.54891 11.0122H5.16891C3.76891 11.0122 2.62891 9.87218 2.62891 8.45218V5.04318C2.62891 3.63218 3.76891 2.48218 5.16891 2.48218H8.54891ZM20.089 2.48218C21.489 2.48218 22.629 3.63218 22.629 5.04318V8.45218C22.629 9.87218 21.489 11.0122 20.089 11.0122H16.709C15.299 11.0122 14.169 9.87218 14.169 8.45218V5.04318C14.169 3.63218 15.299 2.48218 16.709 2.48218H20.089Z" fill="white"/>
</g>
</g>
</g>
</svg>
