<svg width="25" height="25" viewBox="0 0 25 25" fill="none" xmlns="http://www.w3.org/2000/svg">
<g id="Category">
<g id="Iconly/Light/Category">
<g id="Category_2">
<path id="Stroke-1" fill-rule="evenodd" clip-rule="evenodd" d="M3.30029 7C3.30029 4.37479 3.3284 3.5 6.80029 3.5C10.2722 3.5 10.3003 4.37479 10.3003 7C10.3003 9.62521 10.3114 10.5 6.80029 10.5C3.28922 10.5 3.30029 9.62521 3.30029 7Z" stroke="#616161" stroke-width="1.5" stroke-linecap="round" stroke-linejoin="round"/>
<path id="Stroke-3" fill-rule="evenodd" clip-rule="evenodd" d="M14.3003 7C14.3003 4.37479 14.3284 3.5 17.8003 3.5C21.2722 3.5 21.3003 4.37479 21.3003 7C21.3003 9.62521 21.3114 10.5 17.8003 10.5C14.2892 10.5 14.3003 9.62521 14.3003 7Z" stroke="#616161" stroke-width="1.5" stroke-linecap="round" stroke-linejoin="round"/>
<path id="Stroke-5" fill-rule="evenodd" clip-rule="evenodd" d="M3.30029 18C3.30029 15.3748 3.3284 14.5 6.80029 14.5C10.2722 14.5 10.3003 15.3748 10.3003 18C10.3003 20.6252 10.3114 21.5 6.80029 21.5C3.28922 21.5 3.30029 20.6252 3.30029 18Z" stroke="#616161" stroke-width="1.5" stroke-linecap="round" stroke-linejoin="round"/>
<path id="Stroke-7" fill-rule="evenodd" clip-rule="evenodd" d="M14.3003 18C14.3003 15.3748 14.3284 14.5 17.8003 14.5C21.2722 14.5 21.3003 15.3748 21.3003 18C21.3003 20.6252 21.3114 21.5 17.8003 21.5C14.2892 21.5 14.3003 20.6252 14.3003 18Z" stroke="#616161" stroke-width="1.5" stroke-linecap="round" stroke-linejoin="round"/>
</g>
</g>
</g>
</svg>
