<svg width="19" height="21" viewBox="0 0 19 21" fill="none" xmlns="http://www.w3.org/2000/svg">
<g id="Iconly/Bold/Document">
<g id="Document">
<path id="Vector" d="M13.691 0.225098C16.78 0.225098 18.5 2.0051 18.5 5.0551V15.3851C18.5 18.4851 16.78 20.2251 13.691 20.2251H5.31C2.27 20.2251 0.5 18.4851 0.5 15.3851V5.0551C0.5 2.0051 2.27 0.225098 5.31 0.225098H13.691ZM5.58 13.9651C5.28 13.9351 4.99 14.0751 4.83 14.3351C4.67 14.5851 4.67 14.9151 4.83 15.1751C4.99 15.4251 5.28 15.5751 5.58 15.5351H13.42C13.819 15.4951 14.12 15.1541 14.12 14.7551C14.12 14.3451 13.819 14.0051 13.42 13.9651H5.58ZM13.42 9.4041H5.58C5.149 9.4041 4.8 9.7551 4.8 10.1851C4.8 10.6151 5.149 10.9651 5.58 10.9651H13.42C13.85 10.9651 14.2 10.6151 14.2 10.1851C14.2 9.7551 13.85 9.4041 13.42 9.4041ZM8.569 4.8751H5.58V4.8851C5.149 4.8851 4.8 5.2351 4.8 5.6651C4.8 6.0951 5.149 6.4451 5.58 6.4451H8.569C9 6.4451 9.35 6.0951 9.35 5.6541C9.35 5.2251 9 4.8751 8.569 4.8751Z" fill="white"/>
</g>
</g>
</svg>
