<svg width="23" height="23" viewBox="0 0 23 23" fill="none" xmlns="http://www.w3.org/2000/svg">
<g id="Filter">
<g id="Iconly/Light/Filter">
<g id="Filter_2">
<path id="Stroke-1" d="M9.88361 15.899H4.03418" stroke="white" stroke-width="1.39256" stroke-linecap="round" stroke-linejoin="round"/>
<path id="Stroke-3" d="M12.4924 6.90076H18.3419" stroke="white" stroke-width="1.39256" stroke-linecap="round" stroke-linejoin="round"/>
<path id="Stroke-5" fill-rule="evenodd" clip-rule="evenodd" d="M8.39436 6.85032C8.39436 5.64747 7.41199 4.67212 6.20048 4.67212C4.98896 4.67212 4.00659 5.64747 4.00659 6.85032C4.00659 8.05318 4.98896 9.02853 6.20048 9.02853C7.41199 9.02853 8.39436 8.05318 8.39436 6.85032Z" stroke="white" stroke-width="1.39256" stroke-linecap="round" stroke-linejoin="round"/>
<path id="Stroke-7" fill-rule="evenodd" clip-rule="evenodd" d="M18.8607 15.8627C18.8607 14.6598 17.8791 13.6844 16.6675 13.6844C15.4553 13.6844 14.4729 14.6598 14.4729 15.8627C14.4729 17.0655 15.4553 18.0409 16.6675 18.0409C17.8791 18.0409 18.8607 17.0655 18.8607 15.8627Z" stroke="white" stroke-width="1.39256" stroke-linecap="round" stroke-linejoin="round"/>
</g>
</g>
</g>
</svg>
