<svg width="17" height="17" viewBox="0 0 17 17" fill="none" xmlns="http://www.w3.org/2000/svg">
<g id="IONIcon/F/flash/default" clip-path="url(#clip0_2760_376)">
<path id="Vector" d="M6.58813 15.9891C6.50436 15.9891 6.42159 15.9709 6.34563 15.9355C6.26967 15.9002 6.20238 15.8486 6.14847 15.7845C6.09456 15.7204 6.05535 15.6452 6.03359 15.5643C6.01182 15.4834 6.00804 15.3988 6.02251 15.3162V15.3128L6.90095 10.4891H3.50001C3.40561 10.489 3.31314 10.4623 3.2333 10.412C3.15346 10.3616 3.0895 10.2896 3.04884 10.2045C3.00817 10.1193 2.99245 10.0243 3.0035 9.93055C3.01454 9.8368 3.0519 9.74809 3.11126 9.67468L9.96032 1.20781C10.0383 1.10885 10.1465 1.03814 10.2685 1.00651C10.3904 0.974876 10.5193 0.984053 10.6356 1.03264C10.7518 1.08122 10.8489 1.16654 10.9121 1.27555C10.9753 1.38455 11.001 1.51124 10.9853 1.63625C10.9853 1.64562 10.9828 1.65468 10.9813 1.66406L10.0997 6.48906H13.5C13.5944 6.48907 13.6869 6.5158 13.7667 6.56617C13.8466 6.61653 13.9105 6.68847 13.9512 6.77366C13.9918 6.85885 14.0076 6.95382 13.9965 7.04757C13.9855 7.14132 13.9481 7.23003 13.8888 7.30343L7.03876 15.7703C6.98494 15.8383 6.91646 15.8933 6.83844 15.9312C6.76042 15.9691 6.67486 15.9888 6.58813 15.9891Z" fill="#515669"/>
</g>
<defs>
<clipPath id="clip0_2760_376">
<rect width="16" height="16" fill="white" transform="translate(0.5 0.48877)"/>
</clipPath>
</defs>
</svg>
