<svg width="17" height="21" viewBox="0 0 17 21" fill="none" xmlns="http://www.w3.org/2000/svg">
<g id="Iconly/Bold/Paper-Upload">
<g id="Paper-Upload">
<path id="Vector" d="M9.75247 0.225098C10 0.225098 10.2079 0.435098 10.2079 0.685098V3.9051C10.2079 5.7351 11.6931 7.2351 13.5149 7.2451C14.2574 7.2451 14.8515 7.2551 15.3069 7.2551C15.6139 7.2551 16.1188 7.2451 16.5446 7.2451C16.7921 7.2451 17 7.4451 17 7.6951V15.7351C17 18.2151 15 20.2251 12.5446 20.2251H4.67327C2.08911 20.2251 0 18.1151 0 15.5151V4.7351C0 2.2551 1.9901 0.225098 4.46535 0.225098H9.75247ZM8.13861 6.9651C8.0396 6.9651 7.94059 6.9851 7.85149 7.0251C7.76238 7.0651 7.68317 7.1151 7.61386 7.1851L4.78218 10.0651C4.49505 10.3551 4.49505 10.8251 4.78218 11.1151C5.06931 11.4051 5.53465 11.4051 5.82178 11.1151L7.39604 9.5151V14.3451C7.39604 14.7551 7.72277 15.0851 8.13861 15.0851C8.54455 15.0851 8.87129 14.7551 8.87129 14.3451V9.5151L10.4455 11.1151C10.7327 11.4051 11.198 11.4051 11.4851 11.1151C11.7822 10.8251 11.7822 10.3551 11.495 10.0651L8.65347 7.1851C8.58416 7.1151 8.50495 7.0651 8.41584 7.0251C8.32673 6.9851 8.23762 6.9651 8.13861 6.9651ZM11.6452 1.1311C11.6452 0.700098 12.1621 0.486098 12.4581 0.797098C13.5294 1.9211 15.3997 3.8861 16.4452 4.9841C16.7334 5.2871 16.5215 5.7901 16.1047 5.7911C15.2908 5.7941 14.3324 5.7911 13.6423 5.7841C12.5472 5.7841 11.6452 4.8731 11.6452 3.7671V1.1311Z" fill="white"/>
</g>
</g>
</svg>
