<svg width="25" height="25" viewBox="0 0 25 25" fill="none" xmlns="http://www.w3.org/2000/svg">
<g id="Setting">
<g id="Iconly/Light/Setting">
<g id="Setting_2">
<path id="Path_33946" fill-rule="evenodd" clip-rule="evenodd" d="M21.107 8.10575L20.4845 7.02565C19.9579 6.11173 18.791 5.79645 17.8758 6.32085C17.4402 6.57748 16.9204 6.65028 16.431 6.52322C15.9416 6.39615 15.5229 6.07965 15.2671 5.6435C15.1026 5.36628 15.0142 5.05053 15.0108 4.72817C15.0257 4.21135 14.8307 3.71053 14.4703 3.3398C14.1099 2.96907 13.6148 2.76 13.0978 2.76021H11.8438C11.3373 2.76021 10.8516 2.96205 10.4943 3.32108C10.137 3.68011 9.93747 4.16672 9.9399 4.67325C9.92489 5.71906 9.07277 6.55894 8.02686 6.55884C7.7045 6.55549 7.38875 6.46708 7.11153 6.30254C6.19636 5.77815 5.02941 6.09343 4.50283 7.00735L3.83464 8.10575C3.3087 9.01853 3.61969 10.1847 4.53029 10.7144C5.1222 11.0562 5.48682 11.6877 5.48682 12.3712C5.48682 13.0547 5.1222 13.6862 4.53029 14.0279C3.62085 14.5541 3.30952 15.7175 3.83464 16.6275L4.46622 17.7167C4.71294 18.1619 5.1269 18.4904 5.61649 18.6296C6.10608 18.7687 6.63093 18.707 7.07491 18.4581C7.51137 18.2035 8.03148 18.1337 8.51963 18.2643C9.00778 18.395 9.42353 18.7152 9.67446 19.1538C9.83899 19.431 9.9274 19.7468 9.93075 20.0691C9.93075 21.1257 10.7872 21.9822 11.8438 21.9822H13.0978C14.1508 21.9822 15.0058 21.1313 15.0108 20.0783C15.0084 19.5702 15.2092 19.0822 15.5685 18.7229C15.9278 18.3636 16.4158 18.1628 16.9239 18.1652C17.2455 18.1739 17.5599 18.2619 17.8392 18.4215C18.752 18.9475 19.9182 18.6365 20.4479 17.7259L21.107 16.6275C21.362 16.1896 21.4321 15.6681 21.3015 15.1785C21.1709 14.6889 20.8505 14.2715 20.4113 14.0188C19.9721 13.7661 19.6517 13.3487 19.5211 12.8591C19.3905 12.3694 19.4606 11.848 19.7156 11.4101C19.8815 11.1205 20.1217 10.8803 20.4113 10.7144C21.3164 10.185 21.6267 9.02563 21.107 8.1149V8.10575Z" stroke="#616161" stroke-width="1.5" stroke-linecap="round" stroke-linejoin="round"/>
<path id="Ellipse_737" d="M12.4753 15.0073C13.9312 15.0073 15.1114 13.8271 15.1114 12.3712C15.1114 10.9153 13.9312 9.73504 12.4753 9.73504C11.0194 9.73504 9.83911 10.9153 9.83911 12.3712C9.83911 13.8271 11.0194 15.0073 12.4753 15.0073Z" stroke="#616161" stroke-width="1.5" stroke-linecap="round" stroke-linejoin="round"/>
</g>
</g>
</g>
</svg>
