<svg width="25" height="25" viewBox="0 0 25 25" fill="none" xmlns="http://www.w3.org/2000/svg">
<g id="Setting">
<g id="Iconly/Bold/Setting">
<g id="Setting_2">
<path id="Vector" d="M13.018 2.50012C13.7743 2.50012 14.459 2.92012 14.8371 3.54012C15.021 3.84012 15.1437 4.21012 15.113 4.60012C15.0926 4.90012 15.1846 5.20012 15.3481 5.48012C15.8693 6.33012 17.0241 6.65012 17.9234 6.17012C18.9351 5.59012 20.2126 5.94012 20.7951 6.93012L21.4798 8.11012C22.0725 9.10012 21.7455 10.3701 20.7236 10.9401C19.8549 11.4501 19.5483 12.5801 20.0695 13.4401C20.233 13.7101 20.417 13.9401 20.7031 14.0801C21.0608 14.2701 21.3367 14.5701 21.5309 14.8701C21.909 15.4901 21.8784 16.2501 21.5105 16.9201L20.7951 18.1201C20.417 18.7601 19.7118 19.1601 18.9862 19.1601C18.6286 19.1601 18.23 19.0601 17.903 18.8601C17.6373 18.6901 17.3307 18.6301 17.0036 18.6301C15.9919 18.6301 15.1437 19.4601 15.113 20.4501C15.113 21.6001 14.1728 22.5001 12.9976 22.5001H11.6077C10.4222 22.5001 9.48203 21.6001 9.48203 20.4501C9.4616 19.4601 8.61337 18.6301 7.60163 18.6301C7.26439 18.6301 6.9578 18.6901 6.70231 18.8601C6.37528 19.0601 5.9665 19.1601 5.61904 19.1601C4.88323 19.1601 4.17808 18.7601 3.79995 18.1201L3.0948 16.9201C2.71668 16.2701 2.69624 15.4901 3.07436 14.8701C3.23788 14.5701 3.54446 14.2701 3.89193 14.0801C4.17808 13.9401 4.36203 13.7101 4.53576 13.4401C5.04674 12.5801 4.74015 11.4501 3.87149 10.9401C2.85975 10.3701 2.53272 9.10012 3.11524 8.11012L3.79995 6.93012C4.39269 5.94012 5.65991 5.59012 6.68187 6.17012C7.57097 6.65012 8.72579 6.33012 9.24698 5.48012C9.4105 5.20012 9.50247 4.90012 9.48203 4.60012C9.4616 4.21012 9.57401 3.84012 9.76818 3.54012C10.1463 2.92012 10.831 2.52012 11.577 2.50012H13.018ZM12.3129 9.68012C10.7084 9.68012 9.4105 10.9401 9.4105 12.5101C9.4105 14.0801 10.7084 15.3301 12.3129 15.3301C13.9173 15.3301 15.1846 14.0801 15.1846 12.5101C15.1846 10.9401 13.9173 9.68012 12.3129 9.68012Z" fill="white"/>
</g>
</g>
</g>
</svg>
