<svg width="25" height="25" viewBox="0 0 25 25" fill="none" xmlns="http://www.w3.org/2000/svg">
<g id="3 User">
<g id="Iconly/Bold/3-User">
<g id="3-User">
<path id="3-Friends" d="M12.449 14.7647C15.8802 14.7647 18.81 15.3087 18.81 17.4855C18.81 19.6613 15.899 20.2251 12.449 20.2251C9.01785 20.2251 6.08809 19.6811 6.08809 17.5053C6.08809 15.3285 8.99904 14.7647 12.449 14.7647ZM17.9351 13.454C19.2468 13.4297 20.6571 13.6098 21.1782 13.7377C22.2823 13.9547 23.0084 14.3978 23.3093 15.0417C23.5636 15.5704 23.5636 16.1837 23.3093 16.7115C22.849 17.7102 21.3654 18.0309 20.7887 18.1137C20.6696 18.1317 20.5738 18.0282 20.5864 17.9084C20.8809 15.1408 18.5377 13.8286 17.9315 13.5269C17.9055 13.5134 17.9002 13.4927 17.9028 13.4801C17.9046 13.4711 17.9154 13.4567 17.9351 13.454ZM7.0656 13.4543C7.0853 13.457 7.09515 13.4714 7.09694 13.4796C7.09962 13.4931 7.09425 13.5129 7.06918 13.5273C6.4621 13.829 4.11883 15.1412 4.41342 17.9078C4.42595 18.0285 4.33104 18.1312 4.21195 18.1141C3.63531 18.0312 2.15163 17.7106 1.69139 16.7118C1.4362 16.1832 1.4362 15.5708 1.69139 15.0421C1.99225 14.3982 2.71752 13.9551 3.82156 13.7371C4.34358 13.6101 5.75294 13.43 7.0656 13.4543ZM12.449 4.2251C14.7851 4.2251 16.6583 6.10737 16.6583 8.45795C16.6583 10.8076 14.7851 12.6917 12.449 12.6917C10.1129 12.6917 8.23974 10.8076 8.23974 8.45795C8.23974 6.10737 10.1129 4.2251 12.449 4.2251ZM18.1634 4.93099C20.4198 4.93099 22.1918 7.06633 21.5883 9.44483C21.1809 11.0461 19.7062 12.1097 18.0631 12.0665C17.8984 12.062 17.7363 12.0467 17.5796 12.0197C17.4659 11.9999 17.4086 11.8711 17.473 11.7756C18.0998 10.848 18.4571 9.73213 18.4571 8.53432C18.4571 7.28428 18.0667 6.11889 17.3889 5.16335C17.3674 5.13363 17.3513 5.0877 17.3728 5.05348C17.3907 5.02556 17.4238 5.01115 17.4551 5.00394C17.6835 4.95711 17.9181 4.93099 18.1634 4.93099ZM6.83593 4.9309C7.08127 4.9309 7.31586 4.95702 7.54509 5.00385C7.57553 5.01106 7.60956 5.02637 7.62746 5.05339C7.64806 5.08761 7.63284 5.13354 7.61135 5.16326C6.93353 6.1188 6.54313 7.28419 6.54313 8.53423C6.54313 9.73204 6.9004 10.8479 7.52718 11.7755C7.59165 11.871 7.53434 11.9998 7.42063 12.0196C7.26304 12.0475 7.10186 12.0619 6.93711 12.0664C5.29404 12.1096 3.81932 11.046 3.41191 9.44474C2.80751 7.06624 4.57951 4.9309 6.83593 4.9309Z" fill="white"/>
</g>
</g>
</g>
</svg>
