<svg width="25" height="25" viewBox="0 0 25 25" fill="none" xmlns="http://www.w3.org/2000/svg">
<g id="Tick Square">
<g id="Iconly/Bold/Tick-Square">
<g id="Tick-Square">
<path id="Vector" d="M22.5533 16.8401C22.5533 20.2301 20.1733 22.5001 16.6333 22.5001L8.46234 22.5001C4.93334 22.5001 2.55334 20.2301 2.55334 16.8401L2.55334 8.17012C2.55334 4.78012 4.93335 2.50012 8.46235 2.50012L16.6333 2.50012C20.1733 2.50012 22.5533 4.78012 22.5533 8.17012L22.5533 16.8401ZM15.5533 16.6801C15.8933 16.3401 15.8933 15.7801 15.5533 15.4401L11.4233 11.3101L13.1733 9.56012C13.5133 9.22012 13.5133 8.66012 13.1733 8.32012C12.8333 7.98012 12.2833 7.98012 11.9333 8.32012L9.56334 10.7001C9.39334 10.8701 9.31334 11.0901 9.31334 11.3101C9.31334 11.5401 9.39334 11.7601 9.56334 11.9301L14.3133 16.6801C14.6533 17.0201 15.2033 17.0201 15.5533 16.6801Z" fill="white"/>
</g>
</g>
</g>
</svg>
