<svg width="25" height="25" viewBox="0 0 25 25" fill="none" xmlns="http://www.w3.org/2000/svg">
<g id="2 User">
<g id="Iconly/Bold/2-User">
<g id="2-User">
<path id="2-Friends" d="M9.84933 15.0828C13.8347 15.0828 17.1987 15.7162 17.1987 18.1655C17.1987 20.6128 13.8131 21.2251 9.84933 21.2251L9.5786 21.2241C5.71283 21.1954 2.5 20.536 2.5 18.1425C2.5 15.6951 5.88553 15.0828 9.84933 15.0828ZM16.0697 13.6083C17.5854 13.5796 19.2155 13.7837 19.8173 13.9274C21.0932 14.1717 21.9317 14.6691 22.2791 15.3944C22.5736 15.9886 22.5736 16.6785 22.2791 17.2726C21.7478 18.3956 20.0335 18.7569 19.3672 18.8498C19.2292 18.869 19.1186 18.754 19.1333 18.6179C19.4738 15.5056 16.7664 14.0299 16.0658 13.6907C16.0364 13.6744 16.0296 13.6514 16.0325 13.6361C16.0345 13.6265 16.0472 13.6112 16.0697 13.6083ZM9.84933 3.2251C12.5489 3.2251 14.7124 5.34375 14.7124 7.98751C14.7124 10.6313 12.5489 12.7499 9.84933 12.7499C7.1507 12.7499 4.98631 10.6313 4.98631 7.98751C4.98631 5.34375 7.1507 3.2251 9.84933 3.2251ZM16.3339 4.02053C18.9415 4.02053 20.9885 6.42185 20.2908 9.09628C19.8202 10.8987 18.1167 12.0955 16.2184 12.0467C16.0276 12.0428 15.8407 12.0246 15.6587 11.9949C15.5276 11.9719 15.4611 11.8272 15.5364 11.7199C16.2605 10.6764 16.6734 9.42016 16.6734 8.07385C16.6734 6.66716 16.2233 5.35726 15.4396 4.28116C15.4141 4.24763 15.3955 4.19684 15.421 4.15755C15.4405 4.12689 15.4797 4.10964 15.5159 4.10198C15.7801 4.04927 16.0511 4.02053 16.3339 4.02053Z" fill="white"/>
</g>
</g>
</g>
</svg>
