<svg width="26" height="31" viewBox="0 0 26 31" fill="none" xmlns="http://www.w3.org/2000/svg">
<g id="Iconly/Bold/Unlock">
<g id="Unlock">
<path id="Vector" d="M12.9692 0.845703C16.422 0.845703 19.4731 2.97791 20.5993 6.13635C20.7179 6.45524 20.6883 6.80311 20.5401 7.10751C20.3919 7.4119 20.1266 7.64382 19.7991 7.74673C19.1323 7.9772 18.3914 7.63077 18.1394 6.96401C17.3837 4.81731 15.3106 3.38231 12.9988 3.38231C9.97435 3.38231 7.53075 5.76093 7.51445 8.67296V10.6298L7.49666 10.6327H19.1708C22.6088 10.6327 25.3962 13.3592 25.3962 16.722V23.9231C25.3962 27.2859 22.6088 30.0124 19.1708 30.0124H6.82834C3.39189 30.0124 0.604492 27.2859 0.604492 23.9231V16.722C0.604492 13.9564 2.50128 11.6473 5.0827 10.9052L4.92118 10.924V8.70195C4.95081 4.36942 8.55324 0.845703 12.9692 0.845703ZM12.9929 17.4453C12.2816 17.4453 11.7037 18.0106 11.7037 18.7063V21.9242C11.7037 22.6345 12.2816 23.1998 12.9929 23.1998C13.719 23.1998 14.297 22.6345 14.297 21.9242V18.7063C14.297 18.0106 13.719 17.4453 12.9929 17.4453Z" fill="white"/>
</g>
</g>
</svg>
